<svg width="24" height="24" viewBox="0 0 24 24" fill="none" xmlns="http://www.w3.org/2000/svg">
<path fill-rule="evenodd" clip-rule="evenodd" d="M21.6 3.6C21.5999 3.39553 21.5476 3.19448 21.4479 3.01593C21.3483 2.83737 21.2047 2.68724 21.0308 2.57977C20.8568 2.4723 20.6583 2.41106 20.454 2.40186C20.2498 2.39266 20.0465 2.4358 19.8636 2.5272L10.5156 7.2H6.00002C5.04525 7.2 4.12957 7.57929 3.45444 8.25442C2.77931 8.92955 2.40002 9.84522 2.40002 10.8C2.40002 11.7548 2.77931 12.6705 3.45444 13.3456C4.12957 14.0207 5.04525 14.4 6.00002 14.4H6.33602L8.46123 20.7792C8.54084 21.0182 8.69369 21.2262 8.89808 21.3735C9.10248 21.5208 9.34807 21.6001 9.60002 21.6H10.8C11.1183 21.6 11.4235 21.4736 11.6486 21.2485C11.8736 21.0235 12 20.7183 12 20.4V15.1416L19.8636 19.0728C20.0465 19.1642 20.2498 19.2073 20.454 19.1981C20.6583 19.1889 20.8568 19.1277 21.0308 19.0202C21.2047 18.9128 21.3483 18.7626 21.4479 18.5841C21.5476 18.4055 21.5999 18.2045 21.6 18V3.6Z" fill="#F3F3F3"/>
</svg>
