<svg width="123" height="57" viewBox="0 0 123 57" fill="none" xmlns="http://www.w3.org/2000/svg">
<g clip-path="url(#clip0_417_293)">
<path d="M116.885 36.8763C116.885 36.8763 74.0665 33.4854 61.3998 49.3555C48.7326 33.4854 5.91373 36.8763 5.91373 36.8763L0.645386 52.3679C48.9408 41.1418 59.7904 52.8492 61.2987 54.9448V55.2538C61.2987 55.2538 61.3293 55.1958 61.3993 55.0903C61.4693 55.1962 61.5 55.2538 61.5 55.2538V54.9448C63.0083 52.8492 73.8578 41.1418 122.153 52.3679L116.885 36.8763H116.885Z" fill="#FFF59D"/>
<path d="M122.177 51.7456C122.057 51.7126 110.117 48.4694 96.7156 47.2542C88.8192 46.5382 81.9608 46.6555 76.3314 47.6031C69.6624 48.7257 64.6741 51.0336 61.4996 54.464C58.325 51.0336 53.3367 48.7257 46.6677 47.6031C41.0384 46.6555 34.1803 46.5382 26.2835 47.2542C12.8847 48.469 0.941661 51.7131 0.822642 51.7456L-0.000427246 51.971L0.448519 53.6245L1.27159 53.399C1.38929 53.367 13.2028 50.1594 26.4533 48.9595C34.2013 48.258 40.9102 48.3705 46.3933 49.2944C52.8843 50.3884 57.6398 52.6242 60.5277 55.9403L61.4002 56.9996L62.4294 55.892C63.9942 54.2645 65.9427 52.891 68.2211 51.8098C70.6098 50.6762 73.4308 49.8297 76.6058 49.2948C82.089 48.371 88.7974 48.258 96.5458 48.9599C109.793 50.1594 121.61 53.3674 121.728 53.3995L122.551 53.6249L123 51.9715L122.176 51.746L122.177 51.7456Z" fill="#001871"/>
<path d="M26.3334 0.0523033C31.0784 0.0523033 35.7297 3.36538 35.819 7.96228L35.8234 16.4678L28.1541 16.4691L28.1532 9.09228C28.1532 8.23346 27.5082 7.5065 26.6572 7.42343C26.623 7.41992 26.5946 7.4186 26.5723 7.4186" fill="#001871"/>
<path d="M45.7716 21.978L45.7733 34.6502L38.0948 34.6589L38.0957 21.6119C38.3289 17.0506 42.0912 13.5951 46.5382 13.6527C51.0128 13.7107 54.6914 17.2879 54.7807 21.8884L54.7851 34.6554L47.1158 34.6567L47.1145 21.9081C46.9959 21.5987 46.7198 21.3434 46.4524 21.3451C46.0984 21.3473 45.814 21.615 45.7716 21.978Z" fill="#001871"/>
<path d="M64.507 31.5814C64.1455 31.5388 63.8791 31.2536 63.8769 30.8976C63.8751 30.629 64.1294 30.3517 64.4374 30.2326L75.3766 30.2317V30.2102H75.3788L75.3762 27.882L75.3753 22.5283H75.3701V22.4975L64.507 22.4993C64.1455 22.4566 63.8791 22.1714 63.8769 21.8154C63.8751 21.5469 64.1294 21.2695 64.4374 21.1504L72.8873 21.1495L72.886 13.4461L64.4182 13.4505C59.8381 13.5402 56.2767 17.2356 56.219 21.7297C56.1971 23.4311 56.6832 25.0318 57.5435 26.3758C56.7209 27.661 56.24 29.1839 56.219 30.8123C56.1616 35.2791 59.6018 39.0581 64.1429 39.2923L72.8899 39.2932L72.8812 31.5806L64.5074 31.5823L64.507 31.5814Z" fill="#001871"/>
<path d="M92.4414 26.2431L100.815 26.2413L100.824 33.954L92.0769 33.9531C87.5358 33.7188 84.0957 29.9399 84.153 25.473C84.2107 20.9786 87.7721 17.2835 92.3522 17.1939L100.82 17.1895L100.821 24.8929L92.3714 24.8938C92.0634 25.0129 91.8091 25.2902 91.8109 25.5588C91.8131 25.9143 92.0796 26.2 92.441 26.2426L92.4414 26.2431Z" fill="#001871"/>
<path d="M54.7803 35.9951L17.4153 35.9968C17.0539 35.9542 16.7874 35.6689 16.7852 35.3129C16.7834 35.0444 17.0377 34.7671 17.3457 34.648H19.1551V34.6541L27.6229 34.6497C32.203 34.56 35.7644 30.8646 35.8221 26.3705C35.8794 21.9037 32.4393 18.1248 27.8982 17.8905L9.12598 17.8896L9.13473 25.6023L27.5337 25.6005C27.8951 25.6431 28.1616 25.9284 28.1638 26.2844C28.1655 26.5529 27.9113 26.8303 27.6032 26.9494H25.7939V26.9432L17.326 26.9476C12.746 27.0373 9.18461 30.7327 9.12685 35.2268C9.06953 39.6936 12.5097 43.4726 17.0508 43.7068L54.789 43.7077L54.7803 35.9951Z" fill="#001871"/>
<path d="M111.232 36.9321H111.245V18.2289C111.245 15.7299 109.228 13.7037 106.74 13.7037C104.252 13.7037 102.235 15.7299 102.235 18.2289V36.9321H102.248L106.74 43.4497L111.232 36.9321Z" fill="#001871"/>
<path d="M83.2363 37.0772H83.2494V18.0492C83.2494 15.5066 81.2502 13.4452 78.7836 13.4452C76.3174 13.4452 74.3177 15.5066 74.3177 18.0492V37.0772H74.3309L78.7836 43.7077L83.2363 37.0772Z" fill="#001871"/>
<path d="M16.808 8.32576L16.8097 16.7368L9.13123 16.7456L9.1321 7.95964C9.36489 3.39834 13.1271 -0.0566958 17.5741 0.000880813C22.0487 0.058897 25.7274 3.63612 25.8166 8.23654L25.821 16.7421L18.1517 16.7434L18.1504 8.25588C18.0318 7.94646 17.7557 7.6911 17.4884 7.69286C17.1344 7.69505 16.85 7.96272 16.8075 8.32576H16.808Z" fill="#001871"/>
</g>
<defs>
<clipPath id="clip0_417_293">
<rect width="123" height="57" fill="white"/>
</clipPath>
</defs>
</svg>
