<svg width="115" height="28" viewBox="0 0 115 28" fill="none" xmlns="http://www.w3.org/2000/svg">
<g clip-path="url(#clip0_628_11369)">
<path d="M12.7635 13.9216L12.7667 27.9693L0.00170898 27.9839V13.3107C0.389351 5.6928 6.64289 -0.0791751 14.0369 0.0178058C21.4758 0.114787 27.5916 6.08881 27.7406 13.7729L27.747 27.979L14.9964 27.9822V13.8069C14.7978 13.2896 14.3381 12.8629 13.8944 12.8662C13.3049 12.8694 12.834 13.3171 12.7635 13.9232V13.9216Z" fill="#FEFEFE"/>
<path d="M42.0207 13.9216L42.024 27.9693L29.259 27.9839V13.3107C29.6466 5.6928 35.9002 -0.0791751 43.2942 0.0178058C50.7331 0.114787 56.8489 6.08881 56.9978 13.7729L57.0042 27.979L44.2537 27.9822V13.8069C44.0551 13.2896 43.5953 12.8629 43.1516 12.8662C42.5622 12.8694 42.0912 13.3171 42.0207 13.9232V13.9216Z" fill="#FEFEFE"/>
<path d="M101.064 15.1226L114.986 15.1194L115 28.0001H100.459C92.9092 27.6073 87.1891 21.2971 87.2852 13.836C87.3813 6.32971 93.3017 0.158495 100.917 0.00817438L114.995 0.00170898L114.998 12.8678H100.95C100.438 13.0683 100.015 13.5322 100.018 13.9799C100.021 14.5747 100.465 15.0499 101.066 15.121L101.064 15.1226Z" fill="#FEFEFE"/>
<path d="M66.9932 19.637C66.6024 19.5901 66.3156 19.2814 66.3124 18.8951C66.3108 18.609 66.5751 18.3148 66.9003 18.1823H85.7971L85.7875 9.8177H66.998C66.6072 9.77406 66.3205 9.46372 66.3172 9.07741C66.3156 8.78647 66.5896 8.48583 66.9227 8.35652H85.7939V0L66.9035 0.00484904C61.9587 0.10183 58.1143 4.11037 58.0518 8.98528C58.0278 10.8231 58.5484 12.5509 59.4694 14.004C58.5868 15.3957 58.0678 17.0412 58.0454 18.803C57.9829 23.6472 61.6976 27.7462 66.6008 28H85.7923L85.7827 19.6354H66.9932V19.637Z" fill="#FEFEFE"/>
</g>
<defs>
<clipPath id="clip0_628_11369">
<rect width="115" height="28" fill="white"/>
</clipPath>
</defs>
</svg>
